<svg width="260" height="183" viewBox="0 0 260 183" fill="none" xmlns="http://www.w3.org/2000/svg">
<path fill-rule="evenodd" clip-rule="evenodd" d="M259.256 181.278L22.6326 181.278L22.6326 180.385L259.256 180.386L259.256 181.278Z" fill="#EEF0F2"/>
<path fill-rule="evenodd" clip-rule="evenodd" d="M259.256 124.132L22.6326 124.132L22.6326 123.239L259.256 123.239L259.256 124.132Z" fill="#EEF0F2"/>
<path fill-rule="evenodd" clip-rule="evenodd" d="M259.252 67.8778L22.6287 67.8778L22.6287 66.9849L259.252 66.9849L259.252 67.8778Z" fill="#EEF0F2"/>
<path fill-rule="evenodd" clip-rule="evenodd" d="M259.252 11.6241L22.6287 11.6241L22.6287 10.7312L259.252 10.7312L259.252 11.6241Z" fill="#EEF0F2"/>
<path d="M1.89879 180.562V179.767L4.35973 177.217C4.62015 176.94 4.83677 176.698 5.00959 176.489C5.18241 176.279 5.31143 176.079 5.39666 175.889C5.48189 175.7 5.5245 175.499 5.5245 175.286C5.5245 174.923 5.40021 174.637 5.15163 174.426C4.90305 174.213 4.59411 174.107 4.22479 174.107C3.83179 174.107 3.51811 174.225 3.28374 174.462C3.05173 174.696 2.93691 175.009 2.93928 175.399H1.89169C1.89169 174.956 1.99349 174.569 2.19709 174.238C2.40069 173.906 2.68004 173.65 3.03516 173.467C3.39027 173.283 3.79392 173.19 4.24609 173.19C4.70301 173.19 5.10547 173.281 5.45348 173.464C5.80386 173.644 6.0773 173.89 6.27379 174.202C6.47029 174.513 6.56854 174.863 6.56854 175.254C6.56854 175.523 6.51764 175.787 6.41584 176.045C6.31641 176.304 6.1424 176.591 5.89382 176.908C5.64761 177.223 5.30196 177.606 4.85689 178.055L3.41158 179.568V179.621H6.68572V180.562H1.89879ZM8.04581 180.562V173.29H9.1076V177.416H9.19993L11.3732 175.108H12.6445L10.4357 177.448L12.7937 180.562H11.4904L9.63672 178.098L9.1076 178.627V180.562H8.04581Z" fill="#333333"/>
<path d="M0.855469 121.996V121.108L3.99822 116.143H5.35121V121.065H6.31357V121.996H5.35121V123.416H4.30362V121.996H0.855469ZM4.31072 121.065V117.45H4.25391L2.00604 121.008V121.065H4.31072ZM7.56534 123.416V116.143H8.62713V120.27H8.71946L10.8928 117.961H12.1641L9.95526 120.302L12.3132 123.416H11.0099L9.15625 120.952L8.62713 121.481V123.416H7.56534Z" fill="#333333"/>
<path d="M3.54332 67.2608C3.22135 67.2584 2.90294 67.2004 2.58807 67.0868C2.2732 66.9708 1.98793 66.7802 1.73224 66.5151C1.47656 66.2499 1.27178 65.8936 1.1179 65.4462C0.966383 64.9987 0.890625 64.44 0.890625 63.77C0.890625 62.9201 1.00189 62.1981 1.22443 61.6038C1.44697 61.0073 1.76302 60.5527 2.17259 60.2402C2.58452 59.9277 3.07221 59.7715 3.63565 59.7715C4.06889 59.7715 4.4536 59.8579 4.78977 60.0307C5.12595 60.2011 5.39938 60.4379 5.61009 60.7409C5.82079 61.0416 5.95336 61.3872 6.00781 61.7779H4.92472C4.85133 61.4677 4.70573 61.2168 4.48793 61.025C4.27012 60.8309 3.98603 60.7338 3.63565 60.7338C3.10298 60.7338 2.6875 60.9658 2.3892 61.4298C2.09328 61.8939 1.94413 62.5437 1.94176 63.3794H1.99503C2.18205 63.0717 2.433 62.8314 2.74787 62.6585C3.0651 62.4833 3.41548 62.3958 3.79901 62.3958C4.22041 62.3958 4.60275 62.4987 4.94602 62.7047C5.2893 62.9083 5.56274 63.19 5.76634 63.5499C5.96993 63.9097 6.07055 64.3217 6.06818 64.7857C6.07055 65.2497 5.96638 65.6699 5.75568 66.0463C5.54498 66.4227 5.25024 66.721 4.87145 66.9412C4.49266 67.159 4.04995 67.2655 3.54332 67.2608ZM3.53977 66.3375C3.81676 66.3375 4.06534 66.2689 4.28551 66.1315C4.50805 65.9942 4.68324 65.8096 4.81108 65.5776C4.94129 65.3456 5.00521 65.0863 5.00284 64.7999C5.00521 64.5181 4.94366 64.2636 4.81818 64.0364C4.69271 63.8067 4.52107 63.6244 4.30327 63.4895C4.08783 63.3546 3.84162 63.2871 3.56463 63.2871C3.28527 63.2871 3.03314 63.3581 2.80824 63.5002C2.5857 63.6398 2.40814 63.8257 2.27557 64.0577C2.14536 64.2873 2.07907 64.5383 2.0767 64.8105C2.0767 65.0828 2.13944 65.3349 2.26491 65.5669C2.39276 65.7989 2.56676 65.986 2.78693 66.128C3.0071 66.2677 3.25805 66.3375 3.53977 66.3375ZM7.37589 67.1614V59.8886H8.43768V64.0151H8.53001L10.7033 61.7068H11.9746L9.7658 64.047L12.1238 67.1614H10.8205L8.9668 64.6969L8.43768 65.226V67.1614H7.37589Z" fill="#333333"/>
<path d="M3.46165 11.0076C2.95265 11.0076 2.50284 10.92 2.11222 10.7449C1.72396 10.5673 1.41974 10.3258 1.19957 10.0204C0.979403 9.71265 0.870502 9.36227 0.872869 8.96928C0.870502 8.66388 0.933239 8.38216 1.06108 8.12411C1.19129 7.8637 1.36766 7.64589 1.5902 7.4707C1.81274 7.29551 2.06132 7.18424 2.33594 7.1369V7.09428C1.97609 7.00905 1.68608 6.81611 1.46591 6.51545C1.24811 6.21242 1.14039 5.86559 1.14276 5.47496C1.14039 5.10328 1.23864 4.77184 1.4375 4.48065C1.63873 4.18945 1.91454 3.95981 2.26491 3.79173C2.61529 3.62127 3.0142 3.53604 3.46165 3.53604C3.90672 3.53604 4.30327 3.62127 4.65128 3.79173C4.99929 3.95981 5.27391 4.18945 5.47514 4.48065C5.67637 4.77184 5.77817 5.10328 5.78054 5.47496C5.77817 5.86796 5.6669 6.21478 5.44673 6.51545C5.22656 6.81611 4.9401 7.00905 4.58736 7.09428V7.1369C4.85961 7.18424 5.10582 7.29551 5.32599 7.4707C5.54616 7.64589 5.72135 7.8637 5.85156 8.12411C5.98177 8.38216 6.04806 8.66388 6.05043 8.96928C6.04806 9.36227 5.93561 9.71265 5.71307 10.0204C5.4929 10.3258 5.18868 10.5673 4.80043 10.7449C4.41217 10.92 3.96591 11.0076 3.46165 11.0076ZM3.46165 10.1092C3.91146 10.1092 4.26894 9.99911 4.53409 9.77894C4.80161 9.5564 4.93655 9.26284 4.93892 8.89826C4.93655 8.51947 4.79569 8.20934 4.51634 7.96786C4.23698 7.72402 3.88542 7.60209 3.46165 7.60209C3.03314 7.60209 2.67921 7.72402 2.39986 7.96786C2.1205 8.20934 1.98201 8.51947 1.98437 8.89826C1.98201 9.26284 2.1134 9.5564 2.37855 9.77894C2.64607 9.99911 3.0071 10.1092 3.46165 10.1092ZM3.46165 6.72496C3.82386 6.72496 4.12216 6.61843 4.35653 6.40536C4.59091 6.19229 4.70928 5.91294 4.71165 5.56729C4.70928 5.22638 4.59209 4.95295 4.36009 4.74698C4.13044 4.53865 3.83097 4.43448 3.46165 4.43448C3.08523 4.43448 2.7822 4.53865 2.55256 4.74698C2.32292 4.95295 2.20928 5.22638 2.21165 5.56729C2.20928 5.91294 2.32528 6.19229 2.55966 6.40536C2.79403 6.61843 3.0947 6.72496 3.46165 6.72496ZM7.33682 10.9082V3.63548H8.39861V7.7619H8.49094L10.6642 5.45366H11.9355L9.72674 7.79386L12.0847 10.9082H10.7814L8.92773 8.44371L8.39861 8.97283V10.9082H7.33682Z" fill="#333333"/>
<path d="M36.9149 105.827C36.9149 104.101 38.3141 102.702 40.0401 102.702C41.7661 102.702 43.1653 104.101 43.1653 105.827V180.386H36.9149V105.827Z" fill="#5F6DFF"/>
<path d="M244.071 34.3928C244.071 32.6668 245.47 31.2676 247.196 31.2676C248.922 31.2676 250.322 32.6668 250.322 34.3928V180.385H244.071V34.3928Z" fill="#5F6DFF"/>
<path d="M218.177 112.078C218.177 110.352 219.576 108.953 221.302 108.953C223.028 108.953 224.427 110.352 224.427 112.078V180.387H218.177V112.078Z" fill="#5F6DFF"/>
<path d="M192.282 55.8235C192.282 54.0974 193.681 52.6982 195.407 52.6982C197.133 52.6982 198.532 54.0974 198.532 55.8235V180.385H192.282V55.8235Z" fill="#5F6DFF"/>
<path d="M166.388 71.0041C166.388 69.2781 167.787 67.8789 169.513 67.8789C171.239 67.8789 172.638 69.2781 172.638 71.0041V180.386H166.388V71.0041Z" fill="#5F6DFF"/>
<path d="M140.493 105.827C140.493 104.101 141.893 102.701 143.619 102.701C145.345 102.701 146.744 104.101 146.744 105.827V180.385H140.493V105.827Z" fill="#5F6DFF"/>
<path d="M114.599 113.864C114.599 112.138 115.998 110.739 117.724 110.739C119.45 110.739 120.849 112.138 120.849 113.864V180.386H114.599V113.864Z" fill="#5F6DFF"/>
<path d="M88.7035 32.6076C88.7035 30.8816 90.1027 29.4824 91.8287 29.4824C93.5547 29.4824 94.9539 30.8816 94.9539 32.6076V180.385H88.7035V32.6076Z" fill="#5F6DFF"/>
<path d="M62.8134 137.078C62.8134 135.352 64.2126 133.953 65.9386 133.953C67.6646 133.953 69.0638 135.352 69.0638 137.078V180.385H62.8134V137.078Z" fill="#5F6DFF"/>
</svg>
